# xmcd
#
# Track frame offsets:
#	150
#	23930
#	39167
#	54021
#	71041
#	87648
#	105625
#	124214
#	139709
#	156456
#	172720
#	187300
#	205762
#	222406
#
# Disc length: 3217 seconds
#
# Revision: 4
# Processed by: cddbd v1.5PL3 Copyright (c) Steve Scherf et al.
# Submitted via: dBpowerAMP V4.0
#
DISCID=c80c8f0e
DTITLE=Ann Lewis - ALL BEST SONGS
DYEAR=1900
DGENRE=Rock
TTITLE0=六本木心中
TTITLE1=薔薇の奇蹟
TTITLE2=I Love Youより愛してる
TTITLE3=LUV-YA
TTITLE4=ラ・セゾン
TTITLE5=IN PLEASURE
TTITLE6=恋のブギ・ウギ・トレイン
TTITLE7=グッバイ・マイ・ラブ
TTITLE8=女はそれを我慢できない
TTITLE9=甘い予感
TTITLE10=湘南の男たち
TTITLE11=グッバイ・ボーイ
TTITLE12=シャンプー
TTITLE13=リンダ
EXTD=
EXTT0=
EXTT1=
EXTT2=
EXTT3=
EXTT4=
EXTT5=
EXTT6=
EXTT7=
EXTT8=
EXTT9=
EXTT10=
EXTT11=
EXTT12=
EXTT13=
PLAYORDER=
